<svg width="84" height="84" viewBox="0 0 84 84" fill="none" xmlns="http://www.w3.org/2000/svg">
<g id="assured_workload">
<mask id="mask0_213_1582" style="mask-type:alpha" maskUnits="userSpaceOnUse" x="0" y="0" width="84" height="84">
<rect id="Bounding box" width="84" height="84" transform="matrix(-1 0 0 1 84 0)" fill="#D9D9D9"/>
</mask>
<g mask="url(#mask0_213_1582)">
<path id="Subtract" fill-rule="evenodd" clip-rule="evenodd" d="M63.0936 27.9306V56.0862H59.1229V27.9306H63.0936ZM43.7369 27.9306V56.0862H39.7652V27.9306H43.7369ZM74.3076 19.5134V22.5674H9.69238V19.5134L42 3.01855L74.3076 19.5134ZM19.2631 18.844H64.7027L42 7.29074L19.2631 18.844ZM74.3076 61.4502V65.1728H31.9506C32.1886 64.4745 32.3458 63.8289 32.4222 63.2361C32.4987 62.6427 32.5727 62.0474 32.6445 61.4502H74.3076ZM24.8771 27.9306V44.1736L20.9064 42.3115V27.9306H24.8771ZM23.2619 69.4294C20.8206 72.5739 17.7333 74.5793 14 75.4456C10.2667 74.5793 7.17938 72.5739 4.73813 69.4294C2.29746 66.2849 1.07713 62.7923 1.07713 58.9516V51.2152C1.07713 51.2152 3.50002 45.158 14 45.158C24.5 45.158 26.9229 51.2152 26.9229 51.2152V58.9516C26.9229 62.7923 25.7025 66.2849 23.2619 69.4294ZM21.1471 54.6467L22.7501 55.9965L17.2932 60.5963L11.8362 55.9965L13.4393 54.6467L16.1589 56.9363V50.4572H18.4275V56.9363L21.1471 54.6467ZM10.7071 58.3651L16.164 62.9648L14.561 64.3147L11.8414 62.025V68.5041H9.57278V62.025L6.85318 64.3147L5.25012 62.9648L10.7071 58.3651Z" fill="#D1D5DB"/>
</g>
</g>
</svg>
