<svg width="84" height="84" viewBox="0 0 84 84" fill="none" xmlns="http://www.w3.org/2000/svg">
<g id="home_and_garden">
<mask id="mask0_213_1575" style="mask-type:alpha" maskUnits="userSpaceOnUse" x="0" y="0" width="84" height="84">
<rect id="Bounding box" width="84" height="84" fill="#D9D9D9"/>
</mask>
<g mask="url(#mask0_213_1575)">
<path id="Union" fill-rule="evenodd" clip-rule="evenodd" d="M15.75 33.5201V68.2506H37.7659V64.279H19.7216V30.5381L42 13.6979L76.4076 39.625L78.7832 36.468L42 8.69727L5.25 36.468L7.62563 39.625L15.75 33.5201ZM66.167 65.4399H62.943L55.9365 57.8375V55.5927H59.5708C60.5963 55.5927 61.4214 55.342 62.0462 54.8406C62.6712 54.3393 63.06 53.6903 63.2125 52.8938H53.4493V51.1573H63.1688C62.9938 50.4235 62.6011 49.8334 61.9906 49.3872C61.3804 48.9406 60.6008 48.7174 59.6517 48.7174H53.4493V46.7114H67.3014V48.4479H64.0538C64.4418 48.827 64.7648 49.2416 65.0229 49.6917C65.281 50.1414 65.453 50.63 65.5387 51.1573H67.3014V52.8938H65.5851C65.3964 54.2669 64.7732 55.4123 63.7157 56.3299C62.6578 57.2475 61.3077 57.7063 59.6653 57.7063H59.2278L59.184 57.8344L66.184 65.3087L66.167 65.4399ZM53.8942 71.316C55.9175 72.1887 58.0789 72.625 60.3784 72.625C62.6776 72.625 64.8384 72.1885 66.8608 71.3156C68.8833 70.4423 70.6424 69.2574 72.1384 67.7609C73.6344 66.2643 74.8187 64.5044 75.6914 62.4811C76.564 60.4578 77.0004 58.2964 77.0004 55.9969C77.0004 53.6977 76.5639 51.5369 75.6909 49.5145C74.8177 47.4921 73.6328 45.7329 72.1362 44.2369C70.6397 42.741 68.8798 41.5567 66.8565 40.684C64.8332 39.8113 62.6718 39.375 60.3723 39.375C58.0731 39.375 55.9123 39.8115 53.8898 40.6844C51.8674 41.5577 50.1082 42.7426 48.6123 44.2391C47.1163 45.7357 45.932 47.4956 45.0593 49.5189C44.1867 51.5422 43.7503 53.7036 43.7503 56.0031C43.7503 58.3023 44.1868 60.4631 45.0598 62.4855C45.933 64.5079 47.1179 66.2671 48.6145 67.7631C50.111 69.259 51.8709 70.4433 53.8942 71.316Z" fill="#D1D5DB"/>
</g>
</g>
</svg>
