<svg width="82" height="26" viewBox="0 0 82 26" fill="none" xmlns="http://www.w3.org/2000/svg">
<g id="Group">
<path id="Vector" d="M6.1341 6.42261V20.559C6.1341 22.0435 5.68192 23.2151 4.78011 24.0738C3.8783 24.9326 2.65224 25.3607 1.10573 25.3607C0.739686 25.3607 0.376177 25.3252 0.0113988 25.2543L0 21.6888C0 21.6888 0.360977 21.8649 0.786551 21.8649C1.24886 21.8649 1.61364 21.723 1.87962 21.4368C2.14687 21.153 2.27986 20.73 2.27986 20.1702V6.42261H6.1341Z" fill="#1F2328"/>
<g id="XMLID_00000178198530811740915590000001518854769930028466_">
<g id="XMLID_00000052077720752852522480000001991724980610115497_">
<g id="XMLID_00000031913649011003406800000003049748103584117951_">
<path id="Vector_2" d="M5.85467 1.32736C5.39237 0.868857 4.8414 0.640869 4.20177 0.640869C3.56088 0.640869 3.00864 0.868857 2.5476 1.32736C2.08403 1.78587 1.85352 2.3305 1.85352 2.96253C1.85352 3.60216 2.08403 4.15312 2.5476 4.61543C3.00991 5.079 3.56088 5.31079 4.20177 5.31079C4.8414 5.31079 5.39237 5.079 5.85467 4.61543C6.31825 4.15312 6.55003 3.60216 6.55003 2.96253C6.54876 2.3305 6.31698 1.78587 5.85467 1.32736Z" fill="#1F2328"/>
</g>
<g id="XMLID_00000162335421887724717900000005634308370636412596_">
<path id="Vector_3" d="M17.231 6.34924H21.0865V19.7688H17.231V18.1817C16.8484 18.7504 16.3304 19.2026 15.6769 19.5357C15.0233 19.8688 14.3229 20.036 13.5756 20.036C11.8771 20.036 10.5408 19.4939 9.56682 18.4085C8.59282 17.323 8.10645 15.8297 8.10645 13.926V6.34924H11.9619V13.299C11.9619 14.2148 12.195 14.9266 12.6624 15.4332C13.1297 15.9399 13.763 16.1932 14.5635 16.1932C15.0879 16.1932 15.5933 16.0577 16.0771 15.7866C16.5622 15.5156 16.946 15.1482 17.231 14.6859V6.34924Z" fill="#1F2328"/>
</g>
<g id="XMLID_00000109735786869272067890000016045218072682554251_">
<path id="Vector_4" d="M33.2524 6.35042H37.1079V19.1962C37.1079 20.4235 36.8027 21.5039 36.1947 22.4374C35.5855 23.3709 34.7648 24.0801 33.7337 24.5652C32.7015 25.0504 31.5413 25.2923 30.2519 25.2923C29.0778 25.2923 27.915 25.0985 26.7637 24.7122C25.6124 24.3259 24.7245 23.8066 24.1026 23.1581L25.9303 20.4767C27.0778 21.3924 28.4825 21.8509 30.1455 21.8509C30.9815 21.8509 31.7085 21.5926 32.3266 21.0771C32.9447 20.5616 33.2537 19.908 33.2537 19.1164V17.8359C32.9244 18.3602 32.3912 18.7921 31.6527 19.1303C30.9143 19.4685 30.1278 19.6369 29.2918 19.6369C28.1443 19.6369 27.0905 19.3342 26.1304 18.7301C25.1703 18.1259 24.4142 17.3001 23.8632 16.2552C23.3122 15.2102 23.0361 14.069 23.0361 12.8328C23.0361 11.6055 23.3122 10.4719 23.8632 9.43076C24.4142 8.38963 25.1703 7.56761 26.1304 6.96218C27.0905 6.35801 28.1443 6.0553 29.2918 6.0553C30.1278 6.0553 30.9143 6.22629 31.6527 6.56953C32.3912 6.91151 32.9244 7.34975 33.2537 7.88299V6.35042H33.2524ZM30.1442 16.088C30.7927 16.088 31.4007 15.9347 31.9656 15.6282C32.5305 15.3217 32.9599 14.9278 33.2524 14.4477V11.2724C32.9586 10.7835 32.5292 10.3832 31.9656 10.0717C31.4007 9.76008 30.794 9.60429 30.1442 9.60429C29.2019 9.60429 28.4103 9.91333 27.7694 10.5314C27.1285 11.1495 26.8093 11.9171 26.8093 12.8328C26.8093 13.7574 27.1298 14.5313 27.7694 15.1545C28.4103 15.7764 29.2019 16.088 30.1442 16.088Z" fill="#1F2328"/>
</g>
<g id="XMLID_00000020397173052425090630000007004396061779471286_">
<path id="Vector_5" d="M48.7397 6.3479L52.8346 6.34917L44.9615 25.2948H40.8488L43.7227 18.3932L38.707 6.34917H42.8095L45.7797 13.4674L48.7397 6.3479Z" fill="#1F2328"/>
</g>
<g id="XMLID_00000137821654758085843100000014459281860853374383_">
<path id="Vector_6" d="M62.9747 6.34919H66.8302V19.77H62.9747V18.1829C62.6454 18.7339 62.1147 19.181 61.3801 19.523C60.6467 19.865 59.8564 20.0372 59.0115 20.0372C57.864 20.0372 56.8102 19.7256 55.8501 19.1038C54.8901 18.4819 54.1339 17.6345 53.5829 16.563C53.032 15.4914 52.7559 14.3198 52.7559 13.0482C52.7559 11.109 53.3625 9.46373 54.5772 8.11228C55.7906 6.76083 57.27 6.08447 59.0128 6.08447C59.8488 6.08447 60.6353 6.25799 61.3737 6.60504C62.1122 6.95209 62.6454 7.39666 62.9747 7.93876V6.34919ZM59.8665 16.3806C60.515 16.3806 61.1229 16.2248 61.6878 15.9132C62.2527 15.6016 62.6821 15.2014 62.9747 14.7125V11.4307C62.6049 10.7924 62.021 10.3022 61.2217 9.96024C60.9621 9.84878 60.6872 9.77531 60.4073 9.74238C59.2231 9.60179 58.2516 9.90957 57.4916 10.6632C56.8507 11.299 56.5316 12.0932 56.5316 13.0444C56.5316 13.9956 56.852 14.7897 57.4916 15.4256C58.1325 16.0639 58.9241 16.3806 59.8665 16.3806Z" fill="#1F2328"/>
</g>
<g id="XMLID_00000158005792063354760170000015246142086532588454_">
<path id="Vector_7" d="M76.3003 6.08194C77.9899 6.08194 79.3223 6.62657 80.2951 7.71584C81.2691 8.80511 81.7555 10.2934 81.7555 12.178V19.7687H77.9V12.8316C77.9 11.9159 77.6682 11.2002 77.2059 10.6835C76.7436 10.168 76.1115 9.90957 75.311 9.90957C74.7778 9.90957 74.2724 10.0451 73.7975 10.3162C73.3212 10.5872 72.9413 10.9494 72.6563 11.4029V19.7674H68.8008V0.639404H72.6563V7.90963C73.0388 7.3498 73.5543 6.90522 74.2041 6.57591C74.8551 6.2466 75.553 6.08194 76.3003 6.08194Z" fill="#1F2328"/>
</g>
</g>
</g>
</g>
</svg>
