<svg width="67" height="20" viewBox="0 0 67 20" fill="none" xmlns="http://www.w3.org/2000/svg">
<g id="Group">
<path id="Vector" d="M4.96261 4.67871V16.1154C4.96261 17.3163 4.59679 18.2642 3.86721 18.9589C3.13762 19.6536 2.14572 20 0.894559 20C0.598422 20 0.304335 19.9713 0.00922191 19.9139L0 17.0294C0 17.0294 0.292038 17.1718 0.636337 17.1718C1.01035 17.1718 1.30547 17.0571 1.52065 16.8255C1.73686 16.5959 1.84446 16.2537 1.84446 15.8008V4.67871H4.96261Z" fill="#D1D5DB"/>
<g id="XMLID_00000178198530811740915590000001518854769930028466_">
<g id="XMLID_00000052077720752852522480000001991724980610115497_">
<g id="XMLID_00000031913649011003406800000003049748103584117951_">
<path id="Vector_2" d="M4.73648 0.556853C4.36246 0.185912 3.91672 0.00146484 3.39925 0.00146484C2.88075 0.00146484 2.43398 0.185912 2.06099 0.556853C1.68595 0.927793 1.49946 1.36841 1.49946 1.87974C1.49946 2.39721 1.68595 2.84295 2.06099 3.21697C2.43501 3.59201 2.88075 3.77953 3.39925 3.77953C3.91672 3.77953 4.36246 3.59201 4.73648 3.21697C5.11152 2.84295 5.29904 2.39721 5.29904 1.87974C5.29801 1.36841 5.11049 0.927793 4.73648 0.556853Z" fill="#D1D5DB"/>
</g>
<g id="XMLID_00000162335421887724717900000005634308370636412596_">
<path id="Vector_3" d="M13.9401 4.61963H17.0593V15.4763H13.9401V14.1924C13.6306 14.6524 13.2115 15.0183 12.6828 15.2878C12.154 15.5573 11.5874 15.6925 10.9828 15.6925C9.60868 15.6925 8.52762 15.2539 7.73963 14.3758C6.95164 13.4976 6.55815 12.2895 6.55815 10.7494V4.61963H9.67733V10.2421C9.67733 10.983 9.86588 11.5589 10.244 11.9688C10.6221 12.3786 11.1345 12.5836 11.7821 12.5836C12.2063 12.5836 12.6151 12.4739 13.0066 12.2547C13.399 12.0354 13.7095 11.7382 13.9401 11.3642V4.61963Z" fill="#D1D5DB"/>
</g>
<g id="XMLID_00000109735786869272067890000016045218072682554251_">
<path id="Vector_4" d="M26.902 4.62035H30.0212V15.0128C30.0212 16.0058 29.7742 16.8798 29.2824 17.635C28.7895 18.3902 28.1255 18.9641 27.2914 19.3565C26.4562 19.749 25.5176 19.9447 24.4745 19.9447C23.5246 19.9447 22.5839 19.7879 21.6525 19.4754C20.721 19.1629 20.0027 18.7427 19.4996 18.2181L20.9782 16.0488C21.9066 16.7897 23.043 17.1606 24.3884 17.1606C25.0647 17.1606 25.6529 16.9516 26.1529 16.5345C26.653 16.1175 26.903 15.5887 26.903 14.9483V13.9123C26.6366 14.3365 26.2052 14.686 25.6078 14.9595C25.0104 15.2331 24.3741 15.3694 23.6978 15.3694C22.7694 15.3694 21.9168 15.1245 21.1401 14.6357C20.3634 14.147 19.7516 13.4789 19.3059 12.6335C18.8602 11.7881 18.6368 10.8649 18.6368 9.86475C18.6368 8.87182 18.8602 7.95472 19.3059 7.11241C19.7516 6.27011 20.3634 5.60508 21.1401 5.11528C21.9168 4.6265 22.7694 4.38159 23.6978 4.38159C24.3741 4.38159 25.0104 4.51993 25.6078 4.79762C26.2052 5.07429 26.6366 5.42883 26.903 5.86023V4.62035H26.902ZM24.3874 12.4982C24.912 12.4982 25.4039 12.3742 25.8609 12.1263C26.3179 11.8783 26.6653 11.5596 26.902 11.1712V8.60232C26.6643 8.20679 26.3169 7.88299 25.8609 7.63091C25.4039 7.37884 24.9131 7.2528 24.3874 7.2528C23.625 7.2528 22.9846 7.50282 22.4661 8.00288C21.9476 8.50293 21.6894 9.1239 21.6894 9.86475C21.6894 10.6128 21.9486 11.2389 22.4661 11.743C22.9846 12.2462 23.625 12.4982 24.3874 12.4982Z" fill="#D1D5DB"/>
</g>
<g id="XMLID_00000020397173052425090630000007004396061779471286_">
<path id="Vector_5" d="M39.4313 4.61841L42.7442 4.61943L36.3746 19.9469H33.0474L35.3725 14.3633L31.3147 4.61943H34.6337L37.0366 10.3782L39.4313 4.61841Z" fill="#D1D5DB"/>
</g>
<g id="XMLID_00000137821654758085843100000014459281860853374383_">
<path id="Vector_6" d="M50.9479 4.61919H54.0671V15.4769H50.9479V14.1929C50.6815 14.6387 50.2522 15.0004 49.6578 15.2771C49.0645 15.5537 48.4251 15.6931 47.7416 15.6931C46.8133 15.6931 45.9607 15.441 45.184 14.9379C44.4073 14.4348 43.7955 13.7493 43.3498 12.8824C42.904 12.0155 42.6807 11.0676 42.6807 10.0388C42.6807 8.47001 43.1715 7.13892 44.1542 6.04557C45.1358 4.95222 46.3327 4.40503 47.7427 4.40503C48.419 4.40503 49.0553 4.54541 49.6527 4.82618C50.2501 5.10695 50.6815 5.46661 50.9479 5.90519V4.61919ZM48.4333 12.7348C48.958 12.7348 49.4498 12.6088 49.9068 12.3567C50.3638 12.1046 50.7112 11.7808 50.9479 11.3853V8.73028C50.6487 8.21383 50.1763 7.81727 49.5297 7.54061C49.3197 7.45043 49.0973 7.391 48.8709 7.36435C47.9128 7.25061 47.1268 7.49962 46.512 8.10931C45.9935 8.62371 45.7353 9.26619 45.7353 10.0357C45.7353 10.8053 45.9945 11.4478 46.512 11.9622C47.0305 12.4786 47.6709 12.7348 48.4333 12.7348Z" fill="#D1D5DB"/>
</g>
<g id="XMLID_00000158005792063354760170000015246142086532588454_">
<path id="Vector_7" d="M61.7286 4.40313C63.0955 4.40313 64.1735 4.84374 64.9605 5.72498C65.7485 6.60623 66.142 7.81025 66.142 9.335V15.476H63.0228V9.86374C63.0228 9.12288 62.8353 8.54393 62.4612 8.12586C62.0872 7.70881 61.5759 7.49976 60.9283 7.49976C60.4969 7.49976 60.088 7.60941 59.7038 7.82869C59.3185 8.04798 59.0111 8.34104 58.7805 8.70789V15.475H55.6613V0H58.7805V5.88177C59.09 5.42885 59.507 5.06918 60.0327 4.80276C60.5594 4.53634 61.124 4.40313 61.7286 4.40313Z" fill="#D1D5DB"/>
</g>
</g>
</g>
</g>
</svg>
