<svg width="104" height="32" viewBox="0 0 104 32" fill="none" xmlns="http://www.w3.org/2000/svg">
<g id="Group">
<g id="Group_2">
<path id="Vector" d="M7.76261 7.48535V25.7846C7.76261 27.7061 7.19039 29.2227 6.04916 30.3344C4.90793 31.446 3.35637 32.0002 1.39929 32.0002C0.936062 32.0002 0.476047 31.9543 0.0144251 31.8624L0 27.2471C0 27.2471 0.456811 27.475 0.99537 27.475C1.58041 27.475 2.04203 27.2913 2.37863 26.9208C2.71683 26.5535 2.88513 26.0059 2.88513 25.2812V7.48535H7.76261Z" fill="#A6AAB3"/>
<g id="XMLID_00000178198530811740915590000001518854769930028466_">
<g id="XMLID_00000052077720752852522480000001991724980610115497_">
<g id="XMLID_00000031913649011003406800000003049748103584117951_">
<path id="Vector_2" d="M7.40929 0.890113C6.82425 0.296589 6.12701 0.00146484 5.31757 0.00146484C4.50653 0.00146484 3.80768 0.296589 3.22425 0.890113C2.6376 1.48364 2.34589 2.18865 2.34589 3.0068C2.34589 3.83478 2.6376 4.54799 3.22425 5.14643C3.80929 5.74651 4.50653 6.04655 5.31757 6.04655C6.12701 6.04655 6.82425 5.74651 7.40929 5.14643C7.99594 4.54799 8.28926 3.83478 8.28926 3.0068C8.28766 2.18865 7.99434 1.48364 7.40929 0.890113Z" fill="#A6AAB3"/>
</g>
<g id="XMLID_00000162335421887724717900000005634308370636412596_">
<path id="Vector_3" d="M21.8054 7.39185H26.6844V24.7631H21.8054V22.7087C21.3213 23.4449 20.6657 24.0302 19.8387 24.4614C19.0116 24.8926 18.1252 25.109 17.1795 25.109C15.0301 25.109 13.3391 24.4073 12.1065 23.0022C10.8739 21.5971 10.2584 19.664 10.2584 17.1997V7.39185H15.1375V16.3882C15.1375 17.5736 15.4324 18.495 16.0239 19.1508C16.6153 19.8067 17.4168 20.1346 18.4298 20.1346C19.0933 20.1346 19.7329 19.9591 20.3452 19.6083C20.9591 19.2574 21.4447 18.7819 21.8054 18.1835V7.39185Z" fill="#A6AAB3"/>
</g>
<g id="XMLID_00000109735786869272067890000016045218072682554251_">
<path id="Vector_4" d="M42.0806 7.39276H46.9597V24.0213C46.9597 25.61 46.5734 27.0086 45.8041 28.2169C45.0331 29.4253 43.9944 30.3434 42.6897 30.9714C41.3834 31.5993 39.9152 31.9125 38.2835 31.9125C36.7976 31.9125 35.3262 31.6616 33.8692 31.1616C32.4122 30.6615 31.2886 29.9893 30.5016 29.1498L32.8146 25.6789C34.2667 26.8643 36.0443 27.4578 38.1488 27.4578C39.2067 27.4578 40.1268 27.1233 40.909 26.456C41.6911 25.7887 42.0822 24.9427 42.0822 23.918V22.2604C41.6655 22.9391 40.9907 23.4982 40.0562 23.936C39.1218 24.3738 38.1264 24.5918 37.0685 24.5918C35.6163 24.5918 34.2828 24.2 33.0678 23.4179C31.8528 22.6358 30.8959 21.5668 30.1987 20.2142C29.5015 18.8615 29.152 17.3843 29.152 15.7841C29.152 14.1953 29.5015 12.7279 30.1987 11.3802C30.8959 10.0325 31.8528 8.96839 33.0678 8.18467C34.2828 7.4026 35.6163 7.01074 37.0685 7.01074C38.1264 7.01074 39.1218 7.23208 40.0562 7.67641C40.9907 8.11909 41.6655 8.68638 42.0822 9.37664V7.39276H42.0806ZM38.1472 19.9978C38.9679 19.9978 39.7373 19.7994 40.4521 19.4026C41.167 19.0058 41.7104 18.4959 42.0806 17.8745V13.7641C41.7088 13.1313 41.1654 12.6131 40.4521 12.2098C39.7373 11.8065 38.9695 11.6048 38.1472 11.6048C36.9547 11.6048 35.9529 12.0049 35.1419 12.805C34.3309 13.6051 33.9269 14.5987 33.9269 15.7841C33.9269 16.981 34.3325 17.9827 35.1419 18.7894C35.9529 19.5944 36.9547 19.9978 38.1472 19.9978Z" fill="#A6AAB3"/>
</g>
<g id="XMLID_00000020397173052425090630000007004396061779471286_">
<path id="Vector_5" d="M61.6795 7.38892L66.8616 7.39056L56.8982 31.9152H51.6938L55.3306 22.9812L48.9833 7.39056H54.175L57.9337 16.6049L61.6795 7.38892Z" fill="#A6AAB3"/>
</g>
<g id="XMLID_00000137821654758085843100000014459281860853374383_">
<path id="Vector_6" d="M79.6938 7.39052H84.5729V24.7634H79.6938V22.709C79.277 23.4222 78.6054 24.001 77.6758 24.4437C76.7477 24.8864 75.7475 25.1093 74.6784 25.1093C73.2263 25.1093 71.8927 24.706 70.6777 23.901C69.4628 23.0959 68.5059 21.9991 67.8086 20.612C67.1114 19.2249 66.762 17.7083 66.762 16.0622C66.762 13.552 67.5297 11.4222 69.0669 9.6728C70.6024 7.92338 72.4745 7.04785 74.68 7.04785C75.7379 7.04785 76.7333 7.27247 77.6678 7.72171C78.6022 8.17095 79.277 8.74644 79.6938 9.44818V7.39052ZM75.7604 20.3759C76.581 20.3759 77.3504 20.1742 78.0653 19.7709C78.7801 19.3676 79.3235 18.8495 79.6938 18.2166V13.9685C79.2257 13.1421 78.4868 12.5076 77.4754 12.0649C77.1468 11.9206 76.799 11.8255 76.4448 11.7829C74.9461 11.6009 73.7167 11.9993 72.755 12.9749C71.944 13.798 71.5401 14.826 71.5401 16.0573C71.5401 17.2886 71.9456 18.3166 72.755 19.1397C73.5661 19.966 74.5678 20.3759 75.7604 20.3759Z" fill="#A6AAB3"/>
</g>
<g id="XMLID_00000158005792063354760170000015246142086532588454_">
<path id="Vector_7" d="M96.5571 7.04522C98.6953 7.04522 100.381 7.75023 101.612 9.16026C102.845 10.5703 103.461 12.4968 103.461 14.9365V24.7624H98.5815V15.7825C98.5815 14.5971 98.2882 13.6707 97.7031 13.0018C97.1181 12.3345 96.3182 12 95.3052 12C94.6304 12 93.9909 12.1754 93.3898 12.5263C92.7872 12.8772 92.3063 13.3461 91.9457 13.9331V24.7608H87.0666V0H91.9457V9.41112C92.4297 8.68643 93.0821 8.11094 93.9044 7.68465C94.7282 7.25837 95.6114 7.04522 96.5571 7.04522Z" fill="#A6AAB3"/>
</g>
</g>
</g>
</g>
</g>
</svg>
