<svg width="84" height="84" viewBox="0 0 84 84" fill="none" xmlns="http://www.w3.org/2000/svg">
<g id="real_estate_agent">
<mask id="mask0_213_1589" style="mask-type:alpha" maskUnits="userSpaceOnUse" x="0" y="0" width="84" height="84">
<rect id="Bounding box" width="84" height="84" fill="#D9D9D9"/>
</mask>
<g mask="url(#mask0_213_1589)">
<path id="real_estate_agent_2" d="M67.7784 52.5679V24.9984L48.7647 11.6984L29.75 24.9984V36.7575H25.7784V23.0471L48.7647 6.63037L71.75 23.0471V52.5679H67.7784ZM21.875 66.2984L49.1077 74.3755L70.6396 67.6511C70.6846 66.3725 70.2964 65.3729 69.475 64.6525C68.6537 63.9327 67.6935 63.5728 66.5945 63.5728H49.0097C47.9666 63.5728 46.9201 63.5054 45.8701 63.3706C44.8201 63.2359 43.7792 62.9891 42.7473 62.6304L34.65 60.1603L36.0098 56.102L43.932 58.902C44.7079 59.2024 45.549 59.3996 46.4555 59.4935C47.362 59.588 48.3718 59.6242 49.4848 59.602H53.0723C53.0723 58.3093 52.7089 57.2334 51.982 56.3741C51.2552 55.5149 50.3531 54.8744 49.2757 54.4526L29.9994 47.1901C29.9096 47.1674 29.8422 47.1505 29.7973 47.1394C29.7524 47.1283 29.6964 47.1227 29.6293 47.1227H21.875V66.2984ZM5.95703 75.2505V43.152H29.5015C29.8165 43.152 30.1196 43.1832 30.4107 43.2456C30.7017 43.3086 30.9908 43.3827 31.2778 43.4679L50.5882 50.677C52.4011 51.3362 53.9572 52.4355 55.2563 53.9749C56.5554 55.5137 57.2049 57.3894 57.2049 59.602H66.5945C69.1466 59.602 71.2271 60.5015 72.8359 62.3005C74.4453 64.1001 75.25 66.2292 75.25 68.688V70.6261L49.4778 78.5212L21.875 70.4984V75.2505H5.95703ZM9.92778 71.2789H17.8168V47.1227H9.92778V71.2789Z" fill="#D1D5DB"/>
<path id="currency_rupee_circle" d="M50.3514 38.2174H52.0482L52.0572 38.1483L48.373 34.2145L48.396 34.147H48.6263C49.4907 34.147 50.2013 33.9056 50.7581 33.4226C51.3147 32.9397 51.6427 32.3369 51.742 31.6142H52.6453V30.7002H51.7176C51.6724 30.4227 51.5819 30.1656 51.4461 29.9289C51.3102 29.692 51.1402 29.4738 50.9361 29.2742H52.6453V28.3603H45.3547V29.4161H48.6191C49.1187 29.4161 49.529 29.5336 49.8501 29.7686C50.1714 30.0035 50.3781 30.314 50.4702 30.7002H45.3547V31.6142H50.4933C50.413 32.0334 50.2083 32.3749 49.8794 32.6388C49.5506 32.9027 49.1163 33.0346 48.5765 33.0346H46.6637V34.2161L50.3514 38.2174ZM49.0016 41.999C47.7913 41.999 46.6538 41.7694 45.5889 41.3101C44.524 40.8508 43.5977 40.2275 42.8101 39.4401C42.0224 38.6528 41.3988 37.7269 40.9392 36.6624C40.4797 35.598 40.25 34.4607 40.25 33.2506C40.25 32.0404 40.4796 30.9028 40.9389 29.8379C41.3982 28.773 42.0216 27.8467 42.8089 27.0591C43.5963 26.2714 44.5221 25.6478 45.5866 25.1882C46.651 24.7287 47.7883 24.499 48.9984 24.499C50.2086 24.499 51.3462 24.7287 52.4111 25.188C53.476 25.6473 54.4023 26.2706 55.1899 27.0579C55.9776 27.8453 56.6012 28.7712 57.0608 29.8356C57.5203 30.9 57.75 32.0373 57.75 33.2474C57.75 34.4577 57.5203 35.5953 57.0611 36.6601C56.6018 37.725 55.9784 38.6513 55.1911 39.439C54.4037 40.2266 53.4778 40.8502 52.4134 41.3098C51.349 41.7693 50.2117 41.999 49.0016 41.999Z" fill="#D1D5DB"/>
</g>
</g>
</svg>
