<svg width="120" height="120" viewBox="0 0 120 120" fill="none" xmlns="http://www.w3.org/2000/svg">
<g id="verified_user">
<mask id="mask0_234_391" style="mask-type:alpha" maskUnits="userSpaceOnUse" x="0" y="0" width="120" height="120">
<rect id="Bounding box" width="120" height="120" fill="#D9D9D9"/>
</mask>
<g mask="url(#mask0_234_391)">
<g id="verified_user_2" filter="url(#filter0_d_234_391)">
<path d="M54.7714 61.5005L45.1962 51.9434C44.3563 51.1051 43.2854 50.6859 41.9835 50.6859C40.6816 50.6859 39.5687 51.1424 38.6448 52.0554C37.8048 52.9247 37.3849 53.9756 37.3849 55.2079C37.3849 56.4411 37.8048 57.5327 38.6448 58.4825L50.1098 70.0516C51.347 71.3091 52.7901 71.9379 54.4388 71.9379C56.0885 71.9379 57.5012 71.3091 58.6771 70.0516L80.9773 47.7937C81.9012 46.8992 82.3632 45.8374 82.3632 44.6084C82.3632 43.3785 81.9222 42.3444 81.0403 41.5061C80.1584 40.6678 79.079 40.2696 77.8023 40.3115C76.5257 40.3534 75.4841 40.7935 74.6778 41.6319L54.7714 61.5005ZM59.937 109.412C59.2382 109.412 58.5713 109.349 57.9363 109.223C57.3013 109.097 56.7083 108.909 56.1573 108.657C44.0623 104.717 34.4241 97.2725 27.2427 86.3238C20.0613 75.3759 16.4706 63.6597 16.4706 51.1751V27.422C16.4706 24.8852 17.1585 22.573 18.5343 20.4856C19.9093 18.3973 21.7832 16.9369 24.156 16.1044L55.7794 4.2838C57.1233 3.7808 58.5091 3.5293 59.937 3.5293C61.3649 3.5293 62.7508 3.7808 64.0947 4.2838L95.7181 16.1044C98.0909 16.9369 99.9862 18.3973 101.404 20.4856C102.821 22.573 103.529 24.8852 103.529 27.422V51.1751C103.529 63.6597 99.9177 75.3759 92.6943 86.3238C85.4709 97.2725 75.8117 104.717 63.7167 108.657C63.1657 108.909 62.5727 109.097 61.9377 109.223C61.3027 109.349 60.6358 109.412 59.937 109.412ZM59.937 97.9683C69.1763 94.3635 76.7566 88.3274 82.6781 79.8602C88.5997 71.3929 91.5604 61.848 91.5604 51.2254V27.422L59.937 15.4756L28.3136 27.4824V51.1676C28.3136 61.8287 31.2744 71.3929 37.1959 79.8602C43.1174 88.3274 50.6978 94.3635 59.937 97.9683Z" fill="url(#paint0_linear_234_391)"/>
</g>
</g>
</g>
<defs>
<filter id="filter0_d_234_391" x="16.4706" y="1.5293" width="92.0588" height="109.882" filterUnits="userSpaceOnUse" color-interpolation-filters="sRGB">
<feFlood flood-opacity="0" result="BackgroundImageFix"/>
<feColorMatrix in="SourceAlpha" type="matrix" values="0 0 0 0 0 0 0 0 0 0 0 0 0 0 0 0 0 0 127 0" result="hardAlpha"/>
<feOffset dx="3"/>
<feGaussianBlur stdDeviation="1"/>
<feComposite in2="hardAlpha" operator="out"/>
<feColorMatrix type="matrix" values="0 0 0 0 0 0 0 0 0 0 0 0 0 0 0 0 0 0 1 0"/>
<feBlend mode="normal" in2="BackgroundImageFix" result="effect1_dropShadow_234_391"/>
<feBlend mode="normal" in="SourceGraphic" in2="effect1_dropShadow_234_391" result="shape"/>
</filter>
<linearGradient id="paint0_linear_234_391" x1="16.063" y1="3.33714" x2="103.613" y2="110.018" gradientUnits="userSpaceOnUse">
<stop offset="0.106365" stop-color="#1F2328"/>
<stop offset="0.517481" stop-color="#40444D"/>
<stop offset="0.825741" stop-color="#16191C"/>
</linearGradient>
</defs>
</svg>
